<svg width="292" height="44" viewBox="0 0 292 44" fill="none" xmlns="http://www.w3.org/2000/svg">
<path d="M19.3116 6.0647C19.1304 6.09059 18.8262 6.15533 18.632 6.21359C18.4378 6.26537 18.1465 6.34952 17.9911 6.38836C17.7128 6.45957 17.7128 6.46604 17.7451 6.69908C17.7645 6.82854 18.1335 8.56984 18.5672 10.5636C18.9945 12.5573 19.4605 14.7129 19.5965 15.3538C19.7518 16.0723 19.823 16.5319 19.7842 16.5578C19.7518 16.5772 19.3699 16.629 18.9362 16.6678C18.5025 16.7131 16.1398 16.9462 13.6799 17.1986C11.2266 17.4511 8.43017 17.7294 7.46566 17.8265C6.50763 17.9172 5.692 18.0143 5.66611 18.0401C5.5949 18.0984 5.97682 18.4609 6.32638 18.668L6.61767 18.8364L8.52727 18.791C9.5824 18.7716 11.2719 18.7198 12.2882 18.681C17.7516 18.4803 20.5416 18.3832 20.5545 18.3897C20.561 18.3962 20.8134 19.3024 21.1177 20.4029L21.6679 22.4096L22.1728 22.8886C22.859 23.5359 26.1603 26.3776 26.7041 26.7855C27.2931 27.2256 28.646 28.0283 29.9212 28.6951C30.4974 28.9928 30.944 29.2388 30.9116 29.2388C30.8858 29.2388 28.8208 29.4006 26.3157 29.5948C23.817 29.789 21.0141 30.0091 20.0884 30.0803C12.9226 30.6305 8.24892 30.9995 7.56276 31.0513C7.11611 31.0837 5.23888 31.2326 3.39401 31.375C1.54267 31.5174 0.0149933 31.6468 0.00204687 31.6663C-0.0691585 31.7375 1.73687 33.304 2.38419 33.7312C3.33575 34.3591 3.39401 34.3721 5.18062 34.2879C7.27794 34.1908 14.1137 33.9319 23.8753 33.5759C30.834 33.3234 35.4688 33.1486 39.7087 32.9933L43.146 32.8638L43.5279 32.9933C47.4572 34.3526 50.8103 35 53.9433 35C57.6137 35 60.805 34.5857 63.1483 33.8024C63.9639 33.5305 65.3686 32.9026 65.3686 32.812C65.3686 32.7861 65.0967 32.7538 64.773 32.7473C63.6661 32.7085 62.8311 32.4689 62.3456 32.0611C62.0349 31.7957 61.8536 31.2585 61.886 30.6888C61.9442 29.7437 62.4621 29.0705 63.5108 28.5591C64.8831 27.8989 66.592 27.7305 67.5436 28.1643C68.2297 28.4814 68.8188 29.2841 68.9029 30.0221C68.9353 30.3134 68.9094 30.4234 68.78 30.6823C68.6958 30.8506 68.644 30.9866 68.6764 30.9866C68.7735 30.9866 69.2719 30.3004 69.492 29.8538C69.6992 29.4524 69.7186 29.3683 69.6862 29.0381C69.5567 27.5817 67.4141 25.8922 63.6208 24.248C62.6498 23.8272 60.6496 23.0634 59.6527 22.7332L59.0831 22.539L58.5005 21.8076C57.0311 19.9692 55.2833 18.5386 53.6715 17.846C52.3121 17.2698 51.3735 17.1468 49.3927 17.2957C46.2791 17.5288 43.8063 17.8071 38.8284 18.4997C34.7697 19.0629 33.0349 19.2506 30.957 19.3477C29.3775 19.4189 29.3192 19.4189 29.0797 19.2895C28.1282 18.804 25.6295 14.7971 21.7391 7.50175L20.93 5.99997L20.2826 6.00644C19.9266 6.01292 19.4864 6.03881 19.3116 6.0647ZM53.4967 18.6939C53.775 18.7328 54.1505 18.8169 54.3382 18.8881C54.8367 19.0759 55.5487 19.6067 56.2478 20.3122C56.8822 20.9596 58.1639 22.4872 58.1056 22.539C58.0927 22.5585 57.7172 22.5973 57.2706 22.6361C55.3675 22.798 53.4514 23.0439 52.6875 23.2317C51.2246 23.5812 48.8748 24.4098 47.5025 25.0571C47.3083 25.1477 47.1141 25.2254 47.0753 25.2254C47.0364 25.2254 46.9846 25.0701 46.9652 24.8823C46.9458 24.7011 46.7969 23.4841 46.6286 22.1895C46.4668 20.8948 46.3503 19.8138 46.3826 19.7879C46.4733 19.7102 47.9362 19.283 48.836 19.0823C50.6355 18.6745 52.338 18.5321 53.4967 18.6939ZM44.3824 20.1245C44.363 20.1698 43.994 21.2832 43.5538 22.6038C43.1201 23.9178 42.7512 25.0053 42.7447 25.0183C42.7253 25.0377 39.9094 24.6428 39.8835 24.6169C39.8576 24.591 40.8221 20.5776 40.8675 20.5C40.8869 20.4676 41.0034 20.4352 41.1134 20.4288C41.23 20.4288 41.9161 20.3446 42.6476 20.2475C44.2141 20.0274 44.4212 20.0145 44.3824 20.1245ZM45.7353 22.8433C45.8777 24.3127 45.9878 25.5361 45.9748 25.5555C45.9554 25.5879 44.0652 25.3096 44.0264 25.2643C44.0005 25.2384 45.3987 20.1763 45.4311 20.1763C45.4505 20.1763 45.5864 21.3803 45.7353 22.8433Z" fill="white"/>
<path d="M37.7279 15.4962C37.5661 15.5092 35.3976 15.6321 32.9054 15.7746C30.4132 15.917 28.0958 16.0594 27.7527 16.0853L27.1248 16.1306L27.6362 16.8426L28.1541 17.5612L30.0442 17.3475C34.3683 16.8621 39.7087 16.15 39.8123 16.0464C39.8706 15.9882 39.8123 15.9364 39.5987 15.8458C39.2427 15.6904 38.3299 15.4444 38.1552 15.4638C38.0775 15.4703 37.8898 15.4833 37.7279 15.4962Z" fill="white"/>
<path d="M69.5308 20.6489C65.6469 22.0795 62.475 23.2641 62.488 23.2705C62.5009 23.2835 62.9282 23.4647 63.4395 23.6654C65.9123 24.6623 66.6956 25.096 68.1974 26.2871L68.9806 26.9085L72.2043 25.0766C73.9844 24.0667 77.0203 22.3578 78.9623 21.2768C80.9043 20.2022 82.5549 19.2571 82.6391 19.1859C82.7168 19.1147 82.7815 19.0176 82.7815 18.9658C82.7815 18.7458 81.9788 18.5192 80.5483 18.3315C79.7067 18.2279 77.3634 18.0402 76.8909 18.0402C76.6708 18.0467 74.8712 18.681 69.5308 20.6489Z" fill="white"/>
<path d="M65.0449 29.2453C64.3587 29.3683 63.7632 29.7438 63.5237 30.2098C63.4719 30.3134 63.3942 30.6047 63.3489 30.8571C63.2777 31.2844 63.2777 31.3426 63.3942 31.5562C63.4654 31.6857 63.6208 31.8605 63.7438 31.9382C64.2616 32.2877 65.5822 32.5078 66.9351 32.4625C67.6083 32.4431 67.7766 32.4172 68.042 32.2877C68.4692 32.0806 68.5663 31.8734 68.5275 31.252C68.4692 30.3069 67.9967 29.6531 67.1616 29.3683C66.6956 29.2065 65.6081 29.1417 65.0449 29.2453Z" fill="white"/>
<path d="M100.71 35L105.54 5.90909H117.017C119.214 5.90909 121.023 6.29735 122.443 7.07386C123.873 7.85038 124.877 8.9536 125.455 10.3835C126.042 11.804 126.179 13.4801 125.866 15.4119C125.545 17.3437 124.848 19.0009 123.778 20.3835C122.718 21.7661 121.335 22.8314 119.631 23.5795C117.936 24.3182 115.971 24.6875 113.736 24.6875H106.051L106.903 19.7443H113.58C114.754 19.7443 115.758 19.5833 116.591 19.2614C117.424 18.9394 118.082 18.4564 118.565 17.8125C119.058 17.1686 119.38 16.3684 119.531 15.4119C119.692 14.4366 119.635 13.6222 119.361 12.9688C119.086 12.3059 118.589 11.804 117.869 11.4631C117.15 11.1127 116.203 10.9375 115.028 10.9375H110.881L106.861 35H100.71ZM118.608 21.7614L123.651 35H116.861L111.974 21.7614H118.608ZM129.482 43.1818C128.705 43.1818 127.995 43.1203 127.351 42.9972C126.707 42.8835 126.177 42.7367 125.76 42.5568L127.891 38.0398C128.563 38.2576 129.174 38.3712 129.723 38.3807C130.282 38.3902 130.793 38.2481 131.257 37.9545C131.721 37.661 132.147 37.178 132.536 36.5057L133.075 35.5824L128.984 13.1818H135.121L136.967 29.233H137.195L144.425 13.1818H151.058L138.572 37.358C137.957 38.5417 137.228 39.5691 136.385 40.4403C135.552 41.3116 134.562 41.9839 133.416 42.4574C132.28 42.9403 130.968 43.1818 129.482 43.1818ZM166.058 25.7102L168.146 13.1818H174.197L170.561 35H164.751L165.405 31.0369H165.178C164.505 32.3153 163.525 33.3428 162.237 34.1193C160.949 34.8958 159.486 35.2841 157.848 35.2841C156.39 35.2841 155.159 34.9527 154.155 34.2898C153.161 33.6269 152.455 32.6847 152.038 31.4631C151.622 30.2415 151.551 28.7784 151.825 27.0739L154.155 13.1818H160.206L158.075 25.9943C157.876 27.2822 158.056 28.3002 158.615 29.0483C159.174 29.7964 160.026 30.1705 161.172 30.1705C161.901 30.1705 162.607 30.0047 163.288 29.6733C163.98 29.3324 164.576 28.8305 165.078 28.1676C165.58 27.5047 165.907 26.6856 166.058 25.7102ZM213.005 7.92C212.791 8.18666 212.525 8.53333 212.205 8.96C211.885 9.36 211.631 9.70667 211.445 10C210.831 11.04 210.018 12.24 209.005 13.6C207.991 14.9333 206.871 16.2667 205.645 17.6C204.418 18.9067 203.151 20.0267 201.845 20.96L197.685 17.64C198.485 17.16 199.271 16.6 200.045 15.96C200.818 15.32 201.525 14.6533 202.165 13.96C202.831 13.24 203.405 12.56 203.885 11.92C204.391 11.28 204.778 10.7067 205.045 10.2C204.698 10.2 204.111 10.2 203.285 10.2C202.458 10.2 201.471 10.2 200.325 10.2C199.178 10.2 197.938 10.2 196.605 10.2C195.298 10.2 193.991 10.2 192.685 10.2C191.378 10.2 190.138 10.2 188.965 10.2C187.818 10.2 186.818 10.2 185.965 10.2C185.138 10.2 184.551 10.2 184.205 10.2C183.378 10.2 182.591 10.2267 181.845 10.28C181.098 10.3333 180.258 10.4 179.325 10.48V4.92C180.098 5.02667 180.898 5.12 181.725 5.2C182.551 5.28 183.378 5.32 184.205 5.32C184.551 5.32 185.165 5.32 186.045 5.32C186.925 5.32 187.965 5.32 189.165 5.32C190.391 5.32 191.685 5.32 193.045 5.32C194.431 5.32 195.805 5.32 197.165 5.32C198.551 5.32 199.831 5.32 201.005 5.32C202.205 5.32 203.218 5.32 204.045 5.32C204.898 5.32 205.471 5.32 205.765 5.32C206.138 5.32 206.591 5.30667 207.125 5.28C207.658 5.25333 208.178 5.21333 208.685 5.16C209.218 5.10667 209.605 5.04 209.845 4.96L213.005 7.92ZM196.685 13.32C196.685 15.2933 196.645 17.2 196.565 19.04C196.485 20.88 196.258 22.6533 195.885 24.36C195.538 26.04 194.965 27.64 194.165 29.16C193.391 30.68 192.311 32.12 190.925 33.48C189.538 34.84 187.765 36.0933 185.605 37.24L180.925 33.44C181.565 33.2267 182.245 32.9467 182.965 32.6C183.685 32.2267 184.405 31.7733 185.125 31.24C186.405 30.36 187.431 29.4267 188.205 28.44C189.005 27.4533 189.618 26.3867 190.045 25.24C190.471 24.0667 190.765 22.8 190.925 21.44C191.085 20.0533 191.165 18.5467 191.165 16.92C191.165 16.3067 191.151 15.72 191.125 15.16C191.098 14.5733 191.018 13.96 190.885 13.32H196.685ZM244.325 2.6C244.671 3.08 245.045 3.65333 245.445 4.32C245.845 4.98667 246.218 5.65333 246.565 6.32C246.938 6.98667 247.258 7.57333 247.525 8.08L244.285 9.44C243.885 8.61333 243.391 7.68 242.805 6.64C242.245 5.57333 241.698 4.65333 241.165 3.88L244.325 2.6ZM249.045 0.799999C249.418 1.30667 249.805 1.89333 250.205 2.56C250.605 3.22667 250.991 3.89333 251.365 4.56C251.765 5.2 252.071 5.76 252.285 6.24L249.125 7.6C248.698 6.74667 248.191 5.8 247.605 4.76C247.018 3.72 246.445 2.82667 245.885 2.08L249.045 0.799999ZM227.085 4.32C226.978 4.93333 226.898 5.64 226.845 6.44C226.791 7.24 226.765 7.92 226.765 8.48C226.765 8.88 226.765 9.58667 226.765 10.6C226.765 11.5867 226.765 12.76 226.765 14.12C226.765 15.48 226.765 16.9067 226.765 18.4C226.765 19.8667 226.765 21.2933 226.765 22.68C226.765 24.04 226.765 25.2533 226.765 26.32C226.765 27.3867 226.765 28.1733 226.765 28.68C226.765 29.5333 226.978 30.12 227.405 30.44C227.831 30.76 228.485 31.0133 229.365 31.2C229.978 31.28 230.685 31.3467 231.485 31.4C232.285 31.4267 233.125 31.44 234.005 31.44C235.045 31.44 236.191 31.4133 237.445 31.36C238.725 31.28 240.005 31.1867 241.285 31.08C242.591 30.9733 243.818 30.8267 244.965 30.64C246.111 30.4533 247.098 30.2533 247.925 30.04V35.88C246.671 36.0667 245.218 36.2133 243.565 36.32C241.911 36.4533 240.218 36.5467 238.485 36.6C236.778 36.68 235.178 36.72 233.685 36.72C232.378 36.72 231.138 36.68 229.965 36.6C228.818 36.52 227.818 36.4133 226.965 36.28C225.231 35.9333 223.885 35.28 222.925 34.32C221.965 33.3333 221.485 31.9867 221.485 30.28C221.485 29.5067 221.485 28.5067 221.485 27.28C221.485 26.0267 221.485 24.6533 221.485 23.16C221.485 21.64 221.485 20.12 221.485 18.6C221.485 17.0533 221.485 15.6 221.485 14.24C221.485 12.8533 221.485 11.6533 221.485 10.64C221.485 9.62667 221.485 8.90667 221.485 8.48C221.485 8.18667 221.471 7.78667 221.445 7.28C221.418 6.77333 221.378 6.25333 221.325 5.72C221.298 5.18667 221.245 4.72 221.165 4.32H227.085ZM224.445 16.6C225.725 16.3333 227.085 16.0133 228.525 15.64C229.965 15.24 231.418 14.8133 232.885 14.36C234.351 13.9067 235.738 13.4533 237.045 13C238.378 12.52 239.565 12.0533 240.605 11.6C241.325 11.3333 242.031 11.0267 242.725 10.68C243.445 10.3333 244.191 9.92 244.965 9.44L247.125 14.52C246.351 14.8133 245.538 15.1467 244.685 15.52C243.858 15.8667 243.111 16.16 242.445 16.4C241.271 16.8533 239.925 17.3333 238.405 17.84C236.911 18.3467 235.351 18.8533 233.725 19.36C232.098 19.84 230.485 20.2933 228.885 20.72C227.311 21.1467 225.845 21.52 224.485 21.84L224.445 16.6ZM258.485 16.48C258.965 16.5067 259.578 16.5467 260.325 16.6C261.071 16.6267 261.845 16.6533 262.645 16.68C263.471 16.7067 264.231 16.72 264.925 16.72C265.591 16.72 266.418 16.72 267.405 16.72C268.391 16.72 269.458 16.72 270.605 16.72C271.778 16.72 272.978 16.72 274.205 16.72C275.458 16.72 276.698 16.72 277.925 16.72C279.151 16.72 280.311 16.72 281.405 16.72C282.498 16.72 283.471 16.72 284.325 16.72C285.205 16.72 285.898 16.72 286.405 16.72C287.338 16.72 288.218 16.6933 289.045 16.64C289.871 16.56 290.551 16.5067 291.085 16.48V22.76C290.631 22.7333 289.951 22.6933 289.045 22.64C288.138 22.5867 287.258 22.56 286.405 22.56C285.898 22.56 285.205 22.56 284.325 22.56C283.445 22.56 282.458 22.56 281.365 22.56C280.271 22.56 279.111 22.56 277.885 22.56C276.685 22.56 275.458 22.56 274.205 22.56C272.951 22.56 271.738 22.56 270.565 22.56C269.418 22.56 268.351 22.56 267.365 22.56C266.405 22.56 265.591 22.56 264.925 22.56C263.778 22.56 262.605 22.5867 261.405 22.64C260.205 22.6667 259.231 22.7067 258.485 22.76V16.48Z" fill="white"/>
</svg>
